<?xml version="1.0" standalone="no"?>
<!DOCTYPE svg PUBLIC "-//W3C//DTD SVG 20010904//EN"
 "http://www.w3.org/TR/2001/REC-SVG-20010904/DTD/svg10.dtd">
<svg version="1.0" xmlns="http://www.w3.org/2000/svg"
 width="1200.000000pt" height="1200.000000pt" viewBox="0 0 1200.000000 1200.000000"
 preserveAspectRatio="xMidYMid meet">
<metadata>
Created by potrace 1.16, written by Peter Selinger 2001-2019
</metadata>
<g transform="translate(0.000000,1200.000000) scale(0.100000,-0.100000)"
fill="#000000" stroke="none">
<path d="M5061 9439 c-228 -45 -436 -184 -565 -378 -62 -93 -92 -161 -122
-278 -23 -88 -25 -111 -21 -233 8 -209 64 -366 182 -515 31 -39 367 -382 747
-762 562 -564 696 -693 717 -693 21 0 79 54 291 266 146 147 258 264 250 262
-9 -3 -58 -11 -110 -18 l-95 -12 -168 -167 -168 -166 -670 675 c-462 465 -685
697 -718 747 -84 123 -121 251 -121 418 0 200 69 365 210 505 103 103 198 159
331 195 103 28 241 34 335 16 130 -25 266 -96 368 -192 l63 -58 49 50 49 50
-50 45 c-156 140 -313 219 -482 244 -81 12 -241 11 -302 -1z"/>
<path d="M6620 9438 c-87 -12 -242 -74 -331 -133 -103 -67 -646 -611 -714
-713 -60 -92 -99 -184 -126 -298 -18 -76 -20 -108 -16 -219 4 -86 12 -154 26
-200 92 -322 330 -548 658 -626 74 -18 108 -20 213 -16 184 8 325 53 469 150
88 59 558 518 657 642 127 158 183 311 191 525 4 122 2 144 -21 234 -72 278
-262 498 -524 603 -147 60 -306 76 -482 51z m259 -133 c88 -9 214 -57 304
-115 327 -215 426 -652 225 -995 -32 -54 -105 -135 -327 -358 -281 -284 -356
-350 -457 -400 -153 -77 -388 -91 -557 -32 -81 29 -184 84 -212 115 l-19 21
140 140 141 140 60 -12 c89 -18 131 0 248 113 147 140 176 226 117 339 -22 43
-38 59 -82 82 -48 25 -63 28 -116 24 -77 -6 -121 -34 -229 -149 -103 -110
-119 -150 -102 -258 l7 -45 -140 -140 -141 -140 -30 35 c-44 51 -105 184 -124
270 -32 145 -15 330 41 458 50 113 112 186 406 478 314 311 351 341 498 395
75 27 216 50 265 43 11 -2 49 -6 84 -9z m-467 -1092 c11 -10 18 -30 18 -52 0
-32 -10 -46 -90 -126 -79 -78 -94 -89 -125 -89 -42 0 -62 18 -71 62 -6 30 -1
38 87 127 82 84 97 95 128 95 19 0 43 -7 53 -17z"/>
<path d="M3145 4787 c-28 -13 -64 -39 -79 -58 -59 -70 -60 -78 -64 -408 -2
-167 0 -307 5 -311 4 -5 25 -1 45 7 l37 15 3 291 c3 334 5 343 88 385 56 28
86 28 140 -1 79 -41 80 -48 80 -400 0 -290 1 -309 18 -302 9 4 30 12 45 17
l28 10 -3 307 -3 308 -30 49 c-65 104 -200 143 -310 91z"/>
<path d="M7160 4790 c-43 -43 -11 -120 48 -120 35 0 72 37 72 71 0 57 -80 89
-120 49z"/>
<path d="M7893 4790 l-43 -19 0 -91 c0 -70 -3 -90 -14 -90 -8 0 -19 -12 -24
-27 -5 -16 -13 -36 -17 -45 -6 -15 -2 -18 24 -18 l31 0 0 -145 c0 -79 5 -167
11 -195 40 -186 293 -218 380 -48 20 39 26 128 9 128 -5 0 -25 -8 -45 -17 -26
-12 -35 -23 -35 -41 0 -32 -49 -79 -92 -87 -43 -8 -90 13 -115 52 -15 23 -18
51 -18 188 l0 160 118 5 118 5 19 42 19 42 -137 3 -137 3 -5 107 -5 107 -42
-19z"/>
<path d="M3849 4580 c-58 -31 -96 -81 -109 -147 -17 -78 -9 -278 13 -318 35
-68 110 -115 183 -115 108 0 194 82 202 192 l4 58 -26 -10 c-54 -20 -66 -31
-66 -56 0 -15 -12 -38 -29 -54 -51 -52 -111 -52 -163 0 -20 21 -28 38 -26 56
3 23 20 33 156 92 l153 67 -3 67 c-3 57 -8 73 -34 105 -64 78 -175 106 -255
63z m135 -84 c36 -15 66 -50 66 -76 0 -11 -35 -32 -107 -63 -60 -26 -112 -47
-117 -47 -16 0 1 122 22 149 36 49 79 61 136 37z"/>
<path d="M4539 4580 c-58 -31 -96 -81 -109 -147 -17 -78 -9 -278 13 -318 35
-68 110 -115 183 -115 108 0 194 82 202 192 l4 58 -26 -10 c-54 -20 -66 -31
-66 -56 0 -31 -47 -80 -84 -90 -37 -9 -94 15 -120 49 -18 24 -21 45 -24 145
-3 134 9 172 66 205 69 40 162 -13 162 -92 0 -46 12 -51 60 -26 23 12 30 22
30 46 0 36 -29 96 -62 126 -57 53 -162 68 -229 33z"/>
<path d="M5219 4580 c-58 -31 -96 -81 -109 -147 -17 -78 -9 -278 13 -318 35
-68 110 -115 183 -115 108 0 194 82 202 192 l4 58 -26 -10 c-54 -20 -66 -31
-66 -56 0 -15 -12 -38 -29 -54 -51 -52 -111 -52 -163 0 -20 21 -28 38 -26 56
3 23 20 33 156 92 l153 67 -3 67 c-3 57 -8 73 -34 105 -64 78 -175 106 -255
63z m135 -84 c36 -15 66 -50 66 -76 0 -11 -35 -32 -107 -63 -60 -26 -112 -47
-117 -47 -16 0 1 122 22 149 36 49 79 61 136 37z"/>
<path d="M5922 4580 c-69 -42 -95 -122 -64 -194 24 -53 64 -81 130 -91 61 -9
95 -28 110 -60 18 -40 14 -71 -13 -103 -65 -78 -195 -31 -195 69 0 43 -5 45
-55 25 -26 -11 -35 -21 -35 -38 1 -59 72 -154 133 -177 36 -14 108 -14 144 0
63 23 122 109 123 176 0 92 -67 163 -173 184 -64 13 -97 36 -97 69 0 26 43 70
67 70 26 0 63 -28 73 -55 9 -24 9 -24 49 -7 23 9 41 19 41 22 -1 19 -51 88
-79 107 -44 30 -113 31 -159 3z"/>
<path d="M6612 4580 c-69 -42 -95 -122 -64 -194 24 -53 64 -81 130 -91 61 -9
95 -28 110 -60 18 -40 14 -71 -13 -103 -65 -78 -195 -31 -195 69 0 43 -5 45
-55 25 -26 -11 -35 -21 -35 -38 1 -59 72 -154 133 -177 36 -14 108 -14 144 0
63 23 122 109 123 176 0 92 -67 163 -173 184 -64 13 -97 36 -97 69 0 26 43 70
67 70 26 0 63 -28 73 -55 9 -24 9 -24 49 -7 23 9 41 19 41 22 -1 19 -51 88
-79 107 -44 30 -113 31 -159 3z"/>
<path d="M7203 4580 l-43 -19 0 -175 c0 -206 10 -264 53 -313 125 -143 357
-60 357 126 l0 50 -42 -19 c-27 -12 -45 -27 -49 -43 -16 -59 -59 -97 -111 -97
-30 0 -83 33 -100 62 -9 16 -14 86 -18 235 l-5 212 -42 -19z"/>
<path d="M8573 4580 l-43 -19 0 -175 c0 -96 5 -198 11 -226 26 -121 161 -193
274 -146 l35 15 0 -37 c0 -45 -20 -76 -62 -98 -41 -21 -89 -11 -133 27 -29 26
-39 29 -69 23 -46 -8 -47 -31 -4 -79 42 -48 97 -75 153 -75 82 0 149 40 186
112 18 35 19 59 17 367 l-3 330 -42 -19 -43 -19 0 -198 c0 -217 -3 -228 -60
-258 -39 -20 -69 -19 -107 5 -54 33 -58 47 -63 277 l-5 212 -42 -19z"/>
<path d="M2128 3189 c-16 -9 -18 -30 -18 -209 l0 -200 75 0 c91 0 138 17 165
62 17 28 20 50 20 148 0 132 -15 170 -75 196 -39 16 -142 18 -167 3z m167 -54
c27 -26 27 -25 29 -147 3 -138 -18 -168 -116 -168 l-58 0 0 170 0 170 60 0
c51 0 65 -4 85 -25z"/>
<path d="M3637 3193 c-4 -3 -7 -28 -7 -55 0 -26 -4 -48 -8 -48 -5 0 -14 -11
-20 -25 -10 -22 -9 -25 8 -25 19 0 20 -7 20 -99 0 -92 2 -102 26 -130 47 -57
137 -50 175 13 18 29 26 76 13 76 -15 0 -44 -22 -44 -34 0 -21 -34 -46 -63
-46 -47 0 -67 41 -67 136 l0 84 65 0 c53 0 66 3 75 19 5 11 10 22 10 25 0 3
-34 6 -75 6 l-75 0 0 55 c0 39 -4 55 -13 55 -8 0 -17 -3 -20 -7z"/>
<path d="M5517 3193 c-4 -3 -7 -28 -7 -55 0 -26 -4 -48 -8 -48 -5 0 -14 -11
-20 -25 -10 -22 -9 -25 8 -25 19 0 20 -7 20 -99 0 -92 2 -102 26 -130 47 -57
137 -50 175 13 18 29 26 76 13 76 -15 0 -44 -22 -44 -34 0 -21 -34 -46 -63
-46 -47 0 -67 41 -67 136 l0 84 65 0 c53 0 66 3 75 19 5 11 10 22 10 25 0 3
-34 6 -75 6 l-75 0 0 55 c0 39 -4 55 -13 55 -8 0 -17 -3 -20 -7z"/>
<path d="M5897 3193 c-4 -3 -7 -100 -7 -215 0 -206 0 -209 20 -198 18 10 20
21 20 114 0 89 3 107 21 130 24 31 68 35 92 8 14 -15 17 -41 17 -140 l0 -122
25 12 c24 11 25 14 25 120 0 124 -12 158 -61 184 -30 15 -65 15 -101 -1 -16
-6 -18 0 -18 54 0 44 -4 61 -13 61 -8 0 -17 -3 -20 -7z"/>
<path d="M8527 3193 c-4 -3 -7 -83 -7 -177 0 -188 4 -202 60 -231 62 -32 131
-3 151 65 7 22 10 43 6 46 -9 9 -47 -15 -47 -30 0 -21 -34 -46 -63 -46 -16 0
-33 10 -46 26 -19 25 -21 40 -21 190 0 130 -3 164 -13 164 -8 0 -17 -3 -20 -7z"/>
<path d="M9657 3193 c-4 -3 -7 -100 -7 -215 0 -206 0 -209 20 -198 15 8 20 21
20 55 0 24 4 55 10 70 12 33 53 49 83 34 33 -18 37 -28 37 -101 l0 -68 25 12
c22 10 25 17 25 67 0 65 -26 116 -67 132 l-26 10 42 43 c41 41 42 45 24 55
-17 8 -28 1 -79 -50 -32 -32 -62 -59 -66 -59 -4 0 -8 50 -8 110 0 85 -3 110
-13 110 -8 0 -17 -3 -20 -7z"/>
<path d="M2563 3080 c-46 -27 -53 -48 -53 -149 0 -81 2 -92 26 -120 51 -61
150 -48 180 24 19 46 18 167 -1 205 -17 33 -61 60 -97 60 -13 0 -37 -9 -55
-20z m95 -46 c20 -13 22 -24 22 -96 0 -92 -14 -118 -61 -118 -45 0 -69 40 -69
115 0 97 48 141 108 99z"/>
<path d="M2933 3080 c-17 -10 -37 -28 -42 -39 -6 -11 -11 -76 -11 -146 0 -123
0 -125 20 -115 18 10 20 21 20 114 0 89 3 107 21 130 24 31 68 35 92 8 14 -15
17 -41 17 -140 l0 -122 25 12 c24 11 25 14 25 120 0 122 -12 158 -60 183 -39
20 -68 19 -107 -5z"/>
<path d="M3318 3084 c-30 -16 -58 -61 -58 -94 0 -36 16 -28 61 33 24 32 67 36
92 9 31 -34 21 -49 -54 -78 -39 -15 -77 -37 -85 -48 -45 -65 29 -153 111 -132
22 6 23 9 14 30 -8 17 -17 22 -35 18 -15 -3 -32 2 -44 13 -33 30 -3 60 88 89
21 7 22 5 22 -73 l0 -81 25 12 c24 11 25 14 25 120 0 122 -12 158 -60 183 -36
19 -67 19 -102 -1z"/>
<path d="M4063 3080 c-46 -27 -53 -48 -53 -149 0 -81 2 -92 26 -120 50 -60
144 -48 178 24 18 37 21 65 7 65 -22 0 -41 -13 -41 -30 0 -44 -72 -66 -103
-32 -31 34 -20 47 68 87 73 32 85 41 85 62 0 57 -56 113 -112 113 -13 0 -37
-9 -55 -20z"/>
<path d="M4753 3087 c-22 -10 -23 -15 -23 -128 0 -66 5 -129 11 -143 16 -35
63 -53 102 -38 19 7 36 8 48 2 28 -15 54 -12 83 11 26 20 26 21 26 160 0 128
-2 140 -17 137 -16 -3 -19 -19 -23 -127 -4 -101 -8 -126 -22 -134 -12 -8 -21
-7 -32 2 -13 11 -16 37 -16 143 0 126 0 128 -20 118 -18 -10 -20 -21 -20 -123
0 -121 -10 -152 -46 -145 -17 3 -19 15 -24 139 l-5 136 -22 -10z"/>
<path d="M6693 3080 c-46 -27 -53 -48 -53 -149 0 -81 2 -92 26 -120 51 -61
150 -48 180 24 19 46 18 167 -1 205 -17 33 -61 60 -97 60 -13 0 -37 -9 -55
-20z m95 -46 c20 -13 22 -24 22 -96 0 -92 -14 -118 -61 -118 -45 0 -69 40 -69
115 0 97 48 141 108 99z"/>
<path d="M7073 3080 c-17 -10 -37 -28 -42 -39 -6 -11 -11 -76 -11 -146 0 -123
0 -125 20 -115 18 10 20 21 20 114 0 89 3 107 21 130 24 31 68 35 92 8 14 -15
17 -41 17 -140 l0 -122 25 12 c24 11 25 14 25 120 0 122 -12 158 -60 183 -39
20 -68 19 -107 -5z"/>
<path d="M7443 3080 c-46 -27 -53 -48 -53 -149 0 -81 2 -92 26 -120 50 -60
144 -48 178 24 18 37 21 65 7 65 -22 0 -41 -13 -41 -30 0 -44 -72 -66 -103
-32 -31 34 -20 47 68 87 73 32 85 41 85 62 0 57 -56 113 -112 113 -13 0 -37
-9 -55 -20z"/>
<path d="M8203 3080 c-46 -27 -53 -48 -53 -149 0 -81 2 -92 26 -120 50 -60
144 -48 178 24 18 37 21 65 7 65 -22 0 -41 -13 -41 -30 0 -24 -32 -50 -63 -50
-43 0 -67 42 -67 115 0 48 5 68 21 89 37 47 109 25 109 -33 0 -17 4 -22 16
-17 9 3 20 6 25 6 30 0 -10 84 -51 105 -39 20 -68 19 -107 -5z"/>
<path d="M9323 3080 c-46 -27 -53 -48 -53 -149 0 -81 2 -92 26 -120 50 -60
144 -48 178 24 18 37 21 65 7 65 -22 0 -41 -13 -41 -30 0 -24 -32 -50 -63 -50
-43 0 -67 42 -67 115 0 48 5 68 21 89 37 47 109 25 109 -33 0 -17 4 -22 16
-17 9 3 20 6 25 6 30 0 -10 84 -51 105 -39 20 -68 19 -107 -5z"/>
<path d="M5147 3083 c-11 -10 -8 -219 3 -247 11 -31 65 -66 100 -66 43 0 88
35 101 80 7 22 10 43 6 46 -9 9 -47 -15 -47 -30 0 -21 -34 -46 -63 -46 -16 0
-33 10 -46 26 -18 23 -21 41 -21 135 0 84 -3 109 -13 109 -8 0 -17 -3 -20 -7z"/>
<path d="M8907 3083 c-11 -10 -8 -219 3 -247 11 -31 65 -66 100 -66 43 0 88
35 101 80 7 22 10 43 6 46 -9 9 -47 -15 -47 -30 0 -21 -34 -46 -63 -46 -16 0
-33 10 -46 26 -18 23 -21 41 -21 135 0 84 -3 109 -13 109 -8 0 -17 -3 -20 -7z"/>
</g>
</svg>
